<mxfile host="app.diagrams.net" modified="2022-10-11T10:11:24.350Z" agent="5.0 (Windows)" etag="Uyi6N5xUUb5jnnbTs9JI" version="14.9.6" type="github">
  <diagram name="Page-1" id="822b0af5-4adb-64df-f703-e8dfc1f81529">
    <mxGraphModel dx="1517" dy="888" grid="1" gridSize="10" guides="1" tooltips="1" connect="1" arrows="1" fold="1" page="1" pageScale="1" pageWidth="1169" pageHeight="827" background="none" math="0" shadow="0">
      <root>
        <mxCell id="0" />
        <mxCell id="1" parent="0" />
        <mxCell id="Ahp0aDOyElxOXllgqGs4-3" value="" style="aspect=fixed;html=1;points=[];align=center;image;fontSize=12;image=img/lib/mscae/VirtualMachineWindows.svg;" vertex="1" parent="1">
          <mxGeometry x="250" y="330" width="50" height="46" as="geometry" />
        </mxCell>
        <mxCell id="Ahp0aDOyElxOXllgqGs4-4" value="k8sn01.biq.dk" style="aspect=fixed;html=1;points=[];align=center;image;fontSize=20;image=img/lib/mscae/VM_Linux.svg;" vertex="1" parent="1">
          <mxGeometry x="470" y="230" width="50" height="46" as="geometry" />
        </mxCell>
        <mxCell id="Ahp0aDOyElxOXllgqGs4-5" value="k8sn01.biq.dk" style="aspect=fixed;html=1;points=[];align=center;image;fontSize=20;image=img/lib/mscae/VM_Linux.svg;" vertex="1" parent="1">
          <mxGeometry x="690" y="160" width="50" height="46" as="geometry" />
        </mxCell>
      </root>
    </mxGraphModel>
  </diagram>
</mxfile>
